<svg width="24" height="24" viewBox="0 0 24 24" fill="none" xmlns="http://www.w3.org/2000/svg">
<path d="M24 12C24 5.37258 18.6274 0 12 0C5.37258 0 0 5.37258 0 12C0 18.6274 5.37258 24 12 24C18.6274 24 24 18.6274 24 12Z" fill="white"/>
<path fill-rule="evenodd" clip-rule="evenodd" d="M21.0001 12.2089C21.0001 11.5572 20.9416 10.9305 20.833 10.3289H12.1763V13.8843H17.123C16.9099 15.0332 16.2623 16.0067 15.2889 16.6585V18.9647H18.2594C19.9974 17.3646 21.0001 15.0082 21.0001 12.2089Z" fill="#4285F4"/>
<path fill-rule="evenodd" clip-rule="evenodd" d="M12.1763 21.1917C14.658 21.1917 16.7386 20.3687 18.2594 18.9649L15.2889 16.6586C14.4658 17.2101 13.413 17.536 12.1763 17.536C9.78231 17.536 7.756 15.9191 7.03321 13.7466H3.9624V16.128C5.47483 19.132 8.58323 21.1917 12.1763 21.1917Z" fill="#34A853"/>
<path fill-rule="evenodd" clip-rule="evenodd" d="M7.03331 13.7465C6.84948 13.195 6.74503 12.606 6.74503 12.0001C6.74503 11.3943 6.84948 10.8052 7.03331 10.2538V7.87231H3.96251C3.33999 9.11317 2.98486 10.517 2.98486 12.0001C2.98486 13.4833 3.33999 14.8871 3.96251 16.128L7.03331 13.7465Z" fill="#FBBC05"/>
<path fill-rule="evenodd" clip-rule="evenodd" d="M12.1763 6.46432C13.5258 6.46432 14.7374 6.92807 15.69 7.83887L18.3263 5.20257C16.7344 3.71939 14.6538 2.80859 12.1763 2.80859C8.58323 2.80859 5.47483 4.86833 3.9624 7.87229L7.03321 10.2537C7.756 8.08119 9.78231 6.46432 12.1763 6.46432Z" fill="#EA4335"/>
</svg>
